<svg width="194" height="113" viewBox="0 0 194 113" fill="none" xmlns="http://www.w3.org/2000/svg">
<path d="M176.208 101.576C173.552 101.576 171.104 101.16 168.864 100.328C166.656 99.464 164.72 98.248 163.056 96.68C161.424 95.112 160.144 93.272 159.216 91.16C158.32 89.048 157.872 86.728 157.872 84.2C157.872 81.672 158.32 79.352 159.216 77.24C160.144 75.128 161.44 73.288 163.104 71.72C164.768 70.152 166.72 68.952 168.96 68.12C171.2 67.256 173.664 66.824 176.352 66.824C179.328 66.824 182 67.32 184.368 68.312C186.768 69.304 188.784 70.744 190.416 72.632L185.424 77.24C184.208 75.96 182.88 75.016 181.44 74.408C180 73.768 178.432 73.448 176.736 73.448C175.104 73.448 173.616 73.704 172.272 74.216C170.928 74.728 169.76 75.464 168.768 76.424C167.808 77.384 167.056 78.52 166.512 79.832C166 81.144 165.744 82.6 165.744 84.2C165.744 85.768 166 87.208 166.512 88.52C167.056 89.832 167.808 90.984 168.768 91.976C169.76 92.936 170.912 93.672 172.224 94.184C173.568 94.696 175.04 94.952 176.64 94.952C178.176 94.952 179.664 94.712 181.104 94.232C182.576 93.72 184 92.872 185.376 91.688L189.792 97.304C187.968 98.68 185.84 99.736 183.408 100.472C181.008 101.208 178.608 101.576 176.208 101.576ZM182.688 96.296V83.672H189.792V97.304L182.688 96.296Z" fill="#F5F5F5"/>
<circle cx="132" cy="87.2295" r="14" fill="#838383"/>
<path d="M132 59L144.124 80H119.876L132 59Z" fill="#838383"/>
<path d="M82.984 101V67.4H90.76V94.664H107.608V101H82.984Z" fill="#F5F5F5"/>
<path d="M15.024 47.576C12.336 47.576 9.76 47.224 7.296 46.52C4.832 45.784 2.848 44.84 1.344 43.688L3.984 37.832C5.424 38.856 7.12 39.704 9.072 40.376C11.056 41.016 13.056 41.336 15.072 41.336C16.608 41.336 17.84 41.192 18.768 40.904C19.728 40.584 20.432 40.152 20.88 39.608C21.328 39.064 21.552 38.44 21.552 37.736C21.552 36.84 21.2 36.136 20.496 35.624C19.792 35.08 18.864 34.648 17.712 34.328C16.56 33.976 15.28 33.656 13.872 33.368C12.496 33.048 11.104 32.664 9.696 32.216C8.32 31.768 7.056 31.192 5.904 30.488C4.752 29.784 3.808 28.856 3.072 27.704C2.368 26.552 2.016 25.08 2.016 23.288C2.016 21.368 2.528 19.624 3.552 18.056C4.608 16.456 6.176 15.192 8.256 14.264C10.368 13.304 13.008 12.824 16.176 12.824C18.288 12.824 20.368 13.08 22.416 13.592C24.464 14.072 26.272 14.808 27.84 15.8L25.44 21.704C23.872 20.808 22.304 20.152 20.736 19.736C19.168 19.288 17.632 19.064 16.128 19.064C14.624 19.064 13.392 19.24 12.432 19.592C11.472 19.944 10.784 20.408 10.368 20.984C9.952 21.528 9.744 22.168 9.744 22.904C9.744 23.768 10.096 24.472 10.8 25.016C11.504 25.528 12.432 25.944 13.584 26.264C14.736 26.584 16 26.904 17.376 27.224C18.784 27.544 20.176 27.912 21.552 28.328C22.96 28.744 24.24 29.304 25.392 30.008C26.544 30.712 27.472 31.64 28.176 32.792C28.912 33.944 29.28 35.4 29.28 37.16C29.28 39.048 28.752 40.776 27.696 42.344C26.64 43.912 25.056 45.176 22.944 46.136C20.864 47.096 18.224 47.576 15.024 47.576ZM43.6174 47L32.6254 13.4H40.6894L50.2414 43.16H46.2094L56.1934 13.4H63.3934L72.9934 43.16H69.1054L78.8974 13.4H86.3374L75.3454 47H66.9934L58.4974 20.888H60.7054L51.9694 47H43.6174ZM98.7904 26.936H114.966V32.984H98.7904V26.936ZM99.3664 40.76H117.654V47H91.6384V13.4H117.03V19.64H99.3664V40.76ZM120.385 47L135.361 13.4H143.041L158.065 47H149.905L137.617 17.336H140.689L128.353 47H120.385ZM127.873 39.8L129.937 33.896H147.217L149.329 39.8H127.873ZM167.784 47V19.736H157.032V13.4H186.312V19.736H175.56V47H167.784Z" fill="#F5F5F5"/>
</svg>
